<?xml version="1.0" standalone="no"?>
<!DOCTYPE svg PUBLIC "-//W3C//DTD SVG 20010904//EN"
 "http://www.w3.org/TR/2001/REC-SVG-20010904/DTD/svg10.dtd">
<svg version="1.0" xmlns="http://www.w3.org/2000/svg"
 width="221.000000pt" height="221.000000pt" viewBox="0 0 221.000000 221.000000"
 preserveAspectRatio="xMidYMid meet">
<metadata>
Created by potrace 1.14, written by Peter Selinger 2001-2017
</metadata>
<g transform="translate(0.000000,221.000000) scale(0.100000,-0.100000)"
fill="#000000" stroke="none">
<path d="M782 1857 c-5 -7 -62 -115 -127 -242 -201 -392 -399 -777 -557 -1079
-48 -94 -86 -172 -84 -174 5 -5 376 -5 381 0 4 3 66 126 432 848 l170 334 112
1 c61 0 111 4 111 8 1 4 -34 77 -76 161 l-77 154 -138 0 c-92 0 -141 -4 -147
-11z"/>
<path d="M1460 1864 c0 -17 151 -312 162 -316 7 -2 80 -4 163 -4 l150 1 98
145 c54 80 102 152 107 161 9 16 -18 17 -335 17 -190 -1 -345 -2 -345 -4z"/>
<path d="M1251 1512 c-5 -2 39 -99 98 -217 61 -121 103 -216 97 -218 -6 -1
-154 -3 -329 -2 l-317 0 135 -135 135 -136 253 1 c138 1 258 -1 265 -3 7 -2
60 -99 118 -216 58 -116 110 -215 114 -220 7 -7 121 -9 343 -7 l48 1 -79 152
c-44 84 -145 281 -225 438 -263 516 -278 545 -287 554 -9 9 -346 16 -369 8z"/>
</g>
</svg>
